#!OML:ASF F:\VICON\USERDATA\INSTALL\rory3\rory3.ASF
:FULLY-SPECIFIED
:DEGREES
846
root -0.121516 17.3766 0.716177 5.41169 6.21508 0.499387
lowerback -3.27895 -0.998284 -1.02043
upperback -3.25811 -1.30975 -0.17619
thorax -1.48526 -0.636333 0.365689
lowerneck -8.64841 -14.6032 -20.8755
upperneck 20.4493 -22.275 20.4709
head 13.1916 -10.107 7.36842
rclavicle 1.3918e-014 6.06293e-015
rhumerus -36.0975 14.6432 -99.5852
rradius 28.4471
rwrist 27.1449
rhand 7.21698 18.8264
rfingers 7.12502
rthumb 32.4822 -8.28162
lclavicle 1.3918e-014 6.06293e-015
lhumerus -33.319 -23.4783 104.987
lradius 22.3797
lwrist 0.00429732
lhand 6.84002 22.218
lfingers 7.12502
lthumb 32.1234 49.3991
rfemur 7.40738 11.1464 20.8637
rtibia 1.59028e-015
rfoot -9.10292 -18.0515
rtoes -12.1554
lfemur -2.3659 -18.8823 -18.3391
ltibia 13.1038
lfoot -14.848 7.03149
ltoes -16.2918
847
root -0.128713 17.375 0.717619 5.30766 6.24157 0.551517
lowerback -3.25459 -1.06413 -1.201
upperback -3.23845 -1.39415 -0.166534
thorax -1.47319 -0.675097 0.475173
lowerneck -8.52565 -14.5784 -20.8972
upperneck 20.0208 -22.2331 20.6939
head 13.0232 -10.0901 7.46114
rclavicle -5.99149e-015 -1.31198e-014
rhumerus -35.6026 13.3725 -98.6671
rradius 28.025
rwrist 27.1391
rhand 7.33986 18.7213
rfingers 7.12502
rthumb 32.5991 -8.36264
lclavicle -5.99149e-015 -1.31198e-014
lhumerus -32.5866 -20.1432 102.936
lradius 22.4302
lwrist -0.54154
lhand 5.36203 21.1877
lfingers 7.12502
lthumb 30.7152 48.643
rfemur 7.55736 11.1122 20.859
rtibia 0
rfoot -9.2711 -17.9628
rtoes -11.5532
lfemur -2.17116 -18.9153 -18.4017
ltibia 12.9876
lfoot -14.7397 7.24092
ltoes -18.72
848
root -0.132387 17.3731 0.717775 5.2002 6.10375 0.664853
lowerback -3.22062 -1.06373 -1.38842
upperback -3.22454 -1.39071 -0.186173
thorax -1.47423 -0.670061 0.560494
lowerneck -8.36911 -14.5532 -20.972
upperneck 19.6393 -22.2092 20.9537
head 12.8866 -10.0842 7.57704
rclavicle 1.12779e-014 1.09332e-015
rhumerus -35.2343 13.2506 -98.2957
rradius 27.4009
rwrist 26.3009
rhand 7.02606 19.0202
rfingers 7.12502
rthumb 32.3005 -8.12506
lclavicle 1.12779e-014 1.09332e-015
lhumerus -31.8721 -16.6915 100.931
lradius 22.2712
lwrist -1.23086
lhand 4.80242 20.3651
lfingers 7.12502
lthumb 30.1815 47.9193
rfemur 7.67761 11.2378 20.75
rtibia -1.27222e-014
rfoot -9.36081 -17.9073
rtoes -10.9445
lfemur -1.88812 -18.7938 -18.6131
ltibia 12.81
lfoot -14.7536 7.25625
ltoes -19.0802
849
root -0.132251 17.3726 0.716574 5.13445 5.80844 0.79136
lowerback -3.25087 -0.989126 -1.50223
upperback -3.23302 -1.28929 -0.254825
thorax -1.46729 -0.617921 0.555366
lowerneck -8.05031 -14.519 -21.0241
upperneck 19.1603 -22.1949 21.2513
head 12.6853 -10.0926 7.70806
rclavicle 4.21796e-015 -5.36719e-015
rhumerus -34.8781 13.2209 -97.9638
rradius 26.8601
rwrist 26.2181
rhand 7.30264 19.593
rfingers 7.12502
rthumb 32.5637 -7.49826
lclavicle 4.21796e-015 -5.36719e-015
lhumerus -31.4677 -13.9123 99.2881
lradius 22.4057
lwrist -1.3006
lhand 4.69804 21.7675
lfingers 7.12502
lthumb 30.0819 49.3399
rfemur 7.72051 11.5212 20.5889
rtibia 1.43125e-014
rfoot -9.34196 -17.9018
rtoes -10.8375
lfemur -1.6537 -18.5166 -18.8754
ltibia 12.6644
lfoot -14.8778 7.14604
ltoes -17.4145
850
root -0.134117 17.3724 0.716247 5.11207 5.57861 0.855454
lowerback -3.39948 -0.946114 -1.6043
upperback -3.23854 -1.22734 -0.299773
thorax -1.39019 -0.586013 0.565092
lowerneck -7.61627 -14.4783 -21.0609
upperneck 18.5781 -22.1839 21.5939
head 12.4287 -10.1095 7.85649
rclavicle -6.21202e-017 1.23246e-014
rhumerus -34.63 13.2596 -97.6691
rradius 26.7404
rwrist 26.7939
rhand 8.45153 19.7379
rfingers 7.12502
rthumb 33.6562 -7.12154
lclavicle -6.21202e-017 1.23246e-014
lhumerus -31.2679 -11.6318 97.9136
lradius 22.556
lwrist -1.09165
lhand 3.88007 22.5825
lfingers 7.12502
lthumb 29.3012 50.2941
rfemur 7.72504 11.7446 20.5079
rtibia 1.59028e-015
rfoot -9.22892 -17.9146
rtoes -11.4064
lfemur -1.5013 -18.2959 -19.0166
ltibia 12.5446
lfoot -14.9116 7.05316
ltoes -16.3516
851
root -0.136646 17.3741 0.715326 5.07107 5.39079 0.703954
lowerback -3.55418 -0.916288 -1.52916
upperback -3.21068 -1.18542 -0.250725
thorax -1.27635 -0.5669 0.571307
lowerneck -7.35415 -14.476 -21.1095
upperneck 18.1053 -22.2088 21.9013
head 12.2573 -10.1315 7.97712
rclavicle 2.85132e-014 -5.96354e-015
rhumerus -34.541 13.8044 -97.5663
rradius 26.9792
rwrist 27.028
rhand 9.56276 19.6775
rfingers 7.12502
rthumb 34.7115 -6.94543
lclavicle 2.85132e-014 -5.96354e-015
lhumerus -31.0141 -9.43691 96.5763
lradius 22.4775
lwrist -1.238
lhand 2.67398 21.7149
lfingers 7.12502
lthumb 28.149 49.6219
rfemur 7.7196 11.9441 20.6726
rtibia 3.18055e-015
rfoot -9.12416 -17.9099
rtoes -11.7164
lfemur -1.38402 -18.0966 -18.909
ltibia 12.4791
lfoot -14.8423 7.04503
ltoes -16.1977
852
root -0.139389 17.3754 0.714102 5.00802 5.23297 0.71083
lowerback -3.65365 -0.88735 -1.62229
upperback -3.17029 -1.14209 -0.232047
thorax -1.17813 -0.544304 0.641617
lowerneck -7.12722 -14.5154 -21.2413
upperneck 17.7041 -22.2993 22.2317
head 12.1548 -10.1833 8.10451
rclavicle 6.58474e-015 -7.85199e-015
rhumerus -34.6072 14.5059 -97.5252
rradius 27.4295
rwrist 27.0615
rhand 10.3628 19.6886
rfingers 7.12502
rthumb 35.4704 -6.75635
lclavicle 6.58474e-015 -7.85199e-015
lhumerus -30.7446 -7.53669 95.4036
lradius 22.3997
lwrist -1.66869
lhand 1.91765 21.3828
lfingers 7.12502
lthumb 27.4258 49.4064
rfemur 7.7636 12.1002 20.6673
rtibia 2.38542e-014
rfoot -9.10277 -17.901
rtoes -11.6721
lfemur -1.25113 -17.9417 -18.9662
ltibia 12.4463
lfoot -14.7605 7.05431
ltoes -16.3938
853
root -0.142416 17.3764 0.71196 4.95543 5.1181 0.71295
lowerback -3.72619 -0.881576 -1.73362
upperback -3.1764 -1.1299 -0.189565
thorax -1.14143 -0.536076 0.746674
lowerneck -6.8503 -14.5629 -21.4158
upperneck 17.4775 -22.4227 22.4839
head 12.1119 -10.2588 8.21046
rclavicle -7.96381e-015 4.47266e-015
rhumerus -34.8345 15.0707 -97.4365
rradius 28.0793
rwrist 27.2526
rhand 11.2364 19.7185
rfingers 7.12502
rthumb 36.298 -6.52426
lclavicle -7.96381e-015 4.47266e-015
lhumerus -30.584 -5.87238 94.4117
lradius 22.3875
lwrist -2.17323
lhand 1.4016 21.8275
lfingers 7.12502
lthumb 26.9322 49.9284
rfemur 7.79294 12.214 20.6702
rtibia -1.11319e-014
rfoot -9.13776 -17.8629
rtoes -11.9129
lfemur -1.16836 -17.8276 -18.9776
ltibia 12.4384
lfoot -14.5876 7.22609
ltoes -18.467
854
root -0.145739 17.3772 0.708499 4.90932 4.93116 0.714372
lowerback -3.77883 -0.838486 -1.83108
upperback -3.19507 -1.06889 -0.158794
thorax -1.13065 -0.503523 0.833823
lowerneck -6.5004 -14.657 -21.5562
upperneck 17.1873 -22.5979 22.6563
head 12.0263 -10.3673 8.26668
rclavicle -8.49183e-015 1.12313e-014
rhumerus -35.139 15.5956 -97.366
rradius 28.8363
rwrist 27.3287
rhand 12.0092 19.6729
rfingers 7.12502
rthumb 37.0294 -6.38394
lclavicle -8.49183e-015 1.12313e-014
lhumerus -30.5016 -4.60614 93.5852
lradius 22.3974
lwrist -2.52061
lhand 0.528095 21.9167
lfingers 7.12502
lthumb 26.0961 50.1438
rfemur 7.79668 12.3998 20.6697
rtibia -3.02153e-014
rfoot -9.10582 -17.8634
rtoes -12.0084
lfemur -1.08191 -17.6409 -18.977
ltibia 12.3729
lfoot -14.5724 7.26868
ltoes -19.5551
